# xmcd
#
# Track frame offsets:
#	150
#	8232
#	18507
#	32535
#	50385
#	67315
#	85367
#	96045
#	104737
#	121327
#	134885
#	148252
#	164582
#	179580
#	196807
#	215785
#	225147
#	241282
#	256622
#	272462
#
# Disc length: 4047 seconds
#
# Revision: 1
# Processed by: cddbd v1.5PL3 Copyright (c) Steve Scherf et al.
# Submitted via: CDex 1.50Beta5
#
DISCID=240fcd14
DTITLE=オムニバス - D★SELDOM 其の3
DYEAR=1900
DGENRE=
TTITLE0=Bigshot All stars/希望の轍(F.O.)
TTITLE1=The Silver Sonics/白銀の鷹 featuring Criss&Truhful(from Fire Ball)(F.O.)
TTITLE2=POTSHOT/UNDER THE BLUE SKY
TTITLE3=HIGHWAY61/ロマンチックな歌を歌おう
TTITLE4=THE BOOGIE JACK/深呼吸
TTITLE5=BALZAC/YAMI-NO MUKOU-NO SUBETE-WO
TTITLE6=HATE HONEY/Christina(F.O.)
TTITLE7=YELLOW MACHINEGUN/SPICY SPIKY
TTITLE8=#18/☆マリオ☆
TTITLE9=FLOW/Like a Rolling Snow(F.O.)
TTITLE10=DONUTMAN/NEVER ENDING STORY
TTITLE11=ROCKET K/SUPER DRUNKEN CHRISTMAS
TTITLE12=ZARIGANI5/NUMBER
TTITLE13=惑星 feat.YUKARIE/HONEY PIE〜feat.sax ver〜
TTITLE14=WONDERS/ただひとつ
TTITLE15=GQ06/ネジマガッタ!!(F.O.)
TTITLE16=サザンハリケーン/この感じ
TTITLE17=コモンビル/「戦国乱世」のHILLBILLY
TTITLE18=ザ・シロップ/愛のシビレ
TTITLE19=GOING STEADY/夜王子と月の姫(メンバーの曲解説入り)
EXTD=
EXTT0=
EXTT1=
EXTT2=
EXTT3=
EXTT4=
EXTT5=
EXTT6=
EXTT7=
EXTT8=
EXTT9=
EXTT10=
EXTT11=
EXTT12=
EXTT13=
EXTT14=
EXTT15=
EXTT16=
EXTT17=
EXTT18=
EXTT19=
PLAYORDER=
